--40000LOG 14:38:29:163875600 Waiting for file /home/seluser/videos/vid_chrome_or_firefox_40000* to be created...
Won't start video recording due to VIDEO env var false
ffmpeg version 2.8.17-0ubuntu0.1 Copyright (c) 2000-2020 the FFmpeg developers
  built with gcc 5.4.0 (Ubuntu 5.4.0-6ubuntu1~16.04.12) 20160609
  configuration: --prefix=/usr --extra-version=0ubuntu0.1 --build-suffix=-ffmpeg --toolchain=hardened --libdir=/usr/lib/x86_64-linux-gnu --incdir=/usr/include/x86_64-linux-gnu --cc=cc --cxx=g++ --enable-gpl --enable-shared --disable-stripping --disable-decoder=libopenjpeg --disable-decoder=libschroedinger --enable-avresample --enable-avisynth --enable-gnutls --enable-ladspa --enable-libass --enable-libbluray --enable-libbs2b --enable-libcaca --enable-libcdio --enable-libflite --enable-libfontconfig --enable-libfreetype --enable-libfribidi --enable-libgme --enable-libgsm --enable-libmodplug --enable-libmp3lame --enable-libopenjpeg --enable-libopus --enable-libpulse --enable-librtmp --enable-libschroedinger --enable-libshine --enable-libsnappy --enable-libsoxr --enable-libspeex --enable-libssh --enable-libtheora --enable-libtwolame --enable-libvorbis --enable-libvpx --enable-libwavpack --enable-libwebp --enable-libx265 --enable-libxvid --enable-libzvbi --enable-openal --enable-opengl --enable-x11grab --enable-libdc1394 --enable-libiec61883 --enable-libzmq --enable-frei0r --enable-libx264 --enable-libopencv
  libavutil      54. 31.100 / 54. 31.100
  libavcodec     56. 60.100 / 56. 60.100
  libavformat    56. 40.101 / 56. 40.101
  libavdevice    56.  4.100 / 56.  4.100
  libavfilter     5. 40.101 /  5. 40.101
  libavresample   2.  1.  0 /  2.  1.  0
  libswscale      3.  1.101 /  3.  1.101
  libswresample   1.  2.101 /  1.  2.101
  libpostproc    53.  3.100 / 53.  3.100
Input #0, x11grab, from ':12.0':
  Duration: N/A, start: 1605703109.379061, bitrate: N/A
    Stream #0:0: Video: rawvideo (BGR[0] / 0x524742), bgr0, 1366x768, 10 fps, 10 tbr, 1000k tbn, 10 tbc
[libx264 @ 0x240e320] using cpu capabilities: MMX2 SSE2Fast SSSE3 SSE4.2 AVX FMA3 AVX2 LZCNT BMI2
[libx264 @ 0x240e320] profile Constrained Baseline, level 3.2
[libx264 @ 0x240e320] 264 - core 148 r2643 5c65704 - H.264/MPEG-4 AVC codec - Copyleft 2003-2015 - http://www.videolan.org/x264.html - options: cabac=0 ref=1 deblock=0:0:0 analyse=0:0 me=dia subme=0 psy=1 psy_rd=1.00:0.00 mixed_ref=0 me_range=16 chroma_me=1 trellis=0 8x8dct=0 cqm=0 deadzone=21,11 fast_pskip=1 chroma_qp_offset=0 threads=3 lookahead_threads=1 sliced_threads=0 nr=0 decimate=1 interlaced=0 bluray_compat=0 constrained_intra=0 bframes=0 weightp=0 keyint=250 keyint_min=10 scenecut=0 intra_refresh=0 rc=crf mbtree=0 crf=23.0 qcomp=0.60 qpmin=0 qpmax=69 qpstep=4 ip_ratio=1.40 aq=0
Output #0, matroska, to '/home/seluser/videos/vid_chrome_or_firefox_40000.mkv':
  Metadata:
    encoder         : Lavf56.40.101
    Stream #0:0: Video: h264 (libx264) (H264 / 0x34363248), yuv420p, 1366x768, q=-1--1, 10 fps, 1k tbn, 10 tbc
    Metadata:
      encoder         : Lavc56.60.100 libx264
Stream mapping:
  Stream #0:0 -> #0:0 (rawvideo (native) -> h264 (libx264))
Press [q] to stop, [?] for help
[swscaler @ 0x2419ca0] Warning: data is not aligned! This can lead to a speedloss
frame=    8 fps=0.0 q=12.0 size=      31kB time=00:00:00.40 bitrate= 644.6kbits/s    
frame=   14 fps= 12 q=9.0 size=      50kB time=00:00:01.00 bitrate= 405.9kbits/s    
frame=   20 fps= 11 q=11.0 size=      60kB time=00:00:01.60 bitrate= 307.0kbits/s    
frame=   25 fps= 11 q=14.0 size=      62kB time=00:00:02.10 bitrate= 241.1kbits/s    
frame=   30 fps= 11 q=10.0 size=      89kB time=00:00:02.60 bitrate= 281.5kbits/s    
frame=   35 fps= 11 q=9.0 size=      92kB time=00:00:03.10 bitrate= 241.9kbits/s    
frame=   40 fps= 11 q=9.0 size=      93kB time=00:00:03.60 bitrate= 211.1kbits/s    
frame=   45 fps= 11 q=9.0 size=      94kB time=00:00:04.10 bitrate= 187.0kbits/s    
frame=   51 fps= 11 q=9.0 size=      95kB time=00:00:04.70 bitrate= 165.4kbits/s    
frame=   56 fps= 10 q=9.0 size=      96kB time=00:00:05.20 bitrate= 151.3kbits/s    
frame=   62 fps= 10 q=9.0 size=      97kB time=00:00:05.80 bitrate= 137.3kbits/s    
frame=   68 fps= 10 q=16.0 size=      99kB time=00:00:06.40 bitrate= 126.4kbits/s    
frame=   73 fps= 10 q=14.0 size=     167kB time=00:00:06.90 bitrate= 197.8kbits/s    
frame=   78 fps= 10 q=13.0 size=     220kB time=00:00:07.40 bitrate= 244.0kbits/s    
frame=   84 fps= 10 q=12.0 size=     274kB time=00:00:08.00 bitrate= 280.3kbits/s    
frame=   90 fps= 10 q=14.0 size=     341kB time=00:00:08.60 bitrate= 324.7kbits/s    
frame=   96 fps= 10 q=10.0 size=     370kB time=00:00:09.20 bitrate= 329.1kbits/s    
frame=  101 fps= 10 q=9.0 size=     398kB time=00:00:09.70 bitrate= 336.0kbits/s    
frame=  107 fps= 10 q=14.0 size=     496kB time=00:00:10.30 bitrate= 394.5kbits/s    
frame=  113 fps= 10 q=9.0 size=     595kB time=00:00:10.90 bitrate= 447.3kbits/s    
frame=  118 fps= 10 q=9.0 size=     606kB time=00:00:11.40 bitrate= 435.8kbits/s    
frame=  124 fps= 10 q=9.0 size=     607kB time=00:00:12.00 bitrate= 414.4kbits/s    
frame=  129 fps= 10 q=9.0 size=     608kB time=00:00:12.50 bitrate= 398.2kbits/s    
frame=  135 fps= 10 q=10.0 size=     651kB time=00:00:13.10 bitrate= 407.0kbits/s    
frame=  140 fps= 10 q=9.0 size=     660kB time=00:00:13.60 bitrate= 397.8kbits/s    
frame=  146 fps= 10 q=9.0 size=     661kB time=00:00:14.20 bitrate= 381.3kbits/s    
frame=  151 fps= 10 q=9.0 size=     661kB time=00:00:14.70 bitrate= 368.4kbits/s    
frame=  156 fps= 10 q=9.0 size=     661kB time=00:00:15.20 bitrate= 356.5kbits/s    
frame=  161 fps= 10 q=9.0 size=     662kB time=00:00:15.70 bitrate= 345.2kbits/s    
frame=  166 fps= 10 q=9.0 size=     662kB time=00:00:16.20 bitrate= 334.7kbits/s    
frame=  172 fps= 10 q=9.0 size=     662kB time=00:00:16.80 bitrate= 322.9kbits/s    
frame=  178 fps= 10 q=9.0 size=     662kB time=00:00:17.40 bitrate= 311.9kbits/s    
frame=  184 fps= 10 q=9.0 size=     663kB time=00:00:18.00 bitrate= 301.7kbits/s    
frame=  189 fps= 10 q=9.0 size=     663kB time=00:00:18.50 bitrate= 293.6kbits/s    
frame=  194 fps= 10 q=9.0 size=     663kB time=00:00:19.00 bitrate= 286.0kbits/s    
frame=  199 fps= 10 q=9.0 size=     664kB time=00:00:19.50 bitrate= 278.8kbits/s    
frame=  205 fps= 10 q=9.0 size=     664kB time=00:00:20.10 bitrate= 270.6kbits/s    
frame=  210 fps= 10 q=9.0 size=     664kB time=00:00:20.60 bitrate= 264.1kbits/s    
frame=  216 fps= 10 q=9.0 size=     665kB time=00:00:21.20 bitrate= 256.8kbits/s    
frame=  221 fps= 10 q=9.0 size=     665kB time=00:00:21.70 bitrate= 251.0kbits/s    
frame=  226 fps= 10 q=9.0 size=     665kB time=00:00:22.20 bitrate= 245.4kbits/s    
frame=  232 fps= 10 q=9.0 size=     665kB time=00:00:22.80 bitrate= 239.1kbits/s    
frame=  238 fps= 10 q=11.0 size=     666kB time=00:00:23.40 bitrate= 233.0kbits/s    
frame=  244 fps= 10 q=10.0 size=     674kB time=00:00:24.00 bitrate= 230.0kbits/s    
frame=  249 fps= 10 q=10.0 size=     679kB time=00:00:24.50 bitrate= 227.1kbits/s    
frame=  254 fps= 10 q=18.0 size=     698kB time=00:00:25.00 bitrate= 228.8kbits/s    
frame=  259 fps= 10 q=11.0 size=     827kB time=00:00:25.50 bitrate= 265.7kbits/s    
frame=  265 fps= 10 q=11.0 size=     861kB time=00:00:26.10 bitrate= 270.1kbits/s    
frame=  270 fps= 10 q=10.0 size=     869kB time=00:00:26.60 bitrate= 267.5kbits/s    
frame=  275 fps= 10 q=19.0 size=     870kB time=00:00:27.10 bitrate= 262.9kbits/s    
frame=  281 fps= 10 q=13.0 size=    1008kB time=00:00:27.70 bitrate= 298.2kbits/s    
frame=  287 fps= 10 q=9.0 size=    1047kB time=00:00:28.30 bitrate= 303.0kbits/s    
frame=  292 fps= 10 q=9.0 size=    1052kB time=00:00:28.80 bitrate= 299.3kbits/s    
frame=  298 fps= 10 q=9.0 size=    1053kB time=00:00:29.40 bitrate= 293.4kbits/s    
frame=  304 fps= 10 q=9.0 size=    1053kB time=00:00:30.00 bitrate= 287.7kbits/s    
frame=  309 fps= 10 q=9.0 size=    1054kB time=00:00:30.50 bitrate= 283.1kbits/s    
frame=  315 fps= 10 q=9.0 size=    1055kB time=00:00:31.10 bitrate= 277.9kbits/s    
frame=  320 fps= 10 q=9.0 size=    1055kB time=00:00:31.60 bitrate= 273.6kbits/s    
frame=  325 fps= 10 q=9.0 size=    1056kB time=00:00:32.10 bitrate= 269.5kbits/s    
frame=  331 fps= 10 q=9.0 size=    1057kB time=00:00:32.70 bitrate= 264.7kbits/s    
frame=  336 fps= 10 q=9.0 size=    1057kB time=00:00:33.20 bitrate= 260.9kbits/s    
frame=  342 fps= 10 q=9.0 size=    1058kB time=00:00:33.80 bitrate= 256.4kbits/s    
frame=  348 fps= 10 q=9.0 size=    1058kB time=00:00:34.40 bitrate= 252.1kbits/s    
frame=  354 fps= 10 q=9.0 size=    1059kB time=00:00:35.00 bitrate= 247.9kbits/s    
frame=  360 fps= 10 q=9.0 size=    1060kB time=00:00:35.60 bitrate= 243.9kbits/s    
frame=  366 fps= 10 q=9.0 size=    1061kB time=00:00:36.20 bitrate= 240.0kbits/s    
frame=  371 fps= 10 q=9.0 size=    1061kB time=00:00:36.70 bitrate= 236.8kbits/s    
frame=  376 fps= 10 q=9.0 size=    1062kB time=00:00:37.20 bitrate= 233.8kbits/s    
frame=  381 fps= 10 q=12.0 size=    1084kB time=00:00:37.70 bitrate= 235.6kbits/s    
frame=  386 fps= 10 q=11.0 size=    1093kB time=00:00:38.20 bitrate= 234.5kbits/s    
--40000LOG 14:39:08:105602200 Trapped SIGTERM or SIGINT so shutting down ffmpeg gracefully...
--40000LOG 14:39:08:132971800 Will kill VID_TOOL_PID=654 ...
frame=  388 fps= 10 q=-1.0 Lsize=    1099kB time=00:00:38.80 bitrate= 232.0kbits/s    
video:1096kB audio:0kB subtitle:0kB other streams:0kB global headers:0kB muxing overhead: 0.303783%
[libx264 @ 0x240e320] frame I:2     Avg QP:13.50  size: 72639
[libx264 @ 0x240e320] frame P:386   Avg QP:10.23  size:  2528
[libx264 @ 0x240e320] mb I  I16..4: 100.0%  0.0%  0.0%
[libx264 @ 0x240e320] mb P  I16..4:  2.3%  0.0%  0.0%  P16..4:  2.2%  0.0%  0.0%  0.0%  0.0%    skip:95.5%
[libx264 @ 0x240e320] coded y,uvDC,uvAC intra: 14.4% 9.1% 8.5% inter: 1.0% 1.0% 0.7%
[libx264 @ 0x240e320] i16 v,h,dc,p: 74% 24%  1%  1%
[libx264 @ 0x240e320] i8c dc,h,v,p: 82% 15%  3%  1%
[libx264 @ 0x240e320] kb/s:231.19
Exiting normally, received signal 2.
--40000LOG 14:39:09:159439600 Tried to kill -SIGTERM VID_TOOL_PID=654
--40000LOG 14:39:09:174453000 Waiting up to 6s for VID_TOOL_PID=654 to end with SIGTERM...
--40000LOG 14:39:09:194793500 wait_pid successfully managed to SIGTERM:VID_TOOL_PID=654 within less than 6s
--40000LOG 14:39:09:206999900 Will try to fix the videos...
--40000LOG 14:39:09:763608200 Fixing perms for /home/seluser/videos/vid_chrome_or_firefox_40000.mkv*
--40000LOG 14:39:09:810054300 Changing video encoding from mkv to mp4...
--40000LOG 14:39:16:472956300 Conversion from mkv to mp4 succeeded!
--40000LOG 14:39:16:479904900 Cleaning up /home/seluser/videos/vid_chrome_or_firefox_40000.mkv ...
--40000LOG 14:39:16:492891700 Optimizing /home/seluser/videos/vid_chrome_or_firefox_40000.mp4 for HTTP streaming...
--40000LOG 14:39:16:637790500 Succeeded to mp4box_retry.sh within 8s
--40000LOG 14:39:16:660746200 ffmpeg shutdown complete.
